<svg xmlns="http://www.w3.org/2000/svg" version="1.1" xmlns:xlink="http://www.w3.org/1999/xlink" xmlns:svgjs="http://svgjs.dev/svgjs" width="1500" height="268" viewBox="0 0 1500 268"><g transform="matrix(1,0,0,1,-0.9090909090909918,0.7915984558617879)"><svg viewBox="0 0 396 71" data-background-color="#ffffff" preserveAspectRatio="xMidYMid meet" height="268" width="1500" xmlns="http://www.w3.org/2000/svg" xmlns:xlink="http://www.w3.org/1999/xlink"><g id="tight-bounds" transform="matrix(1,0,0,1,0.2400000000000091,-0.20971451629173998)"><svg viewBox="0 0 395.52 71.41942903258348" height="71.41942903258348" width="395.52"><g><svg viewBox="0 0 395.52 71.41942903258348" height="71.41942903258348" width="395.52"><g><svg viewBox="0 0 395.52 71.41942903258348" height="71.41942903258348" width="395.52"><g id="textblocktransform"><svg viewBox="0 0 395.52 71.41942903258348" height="71.41942903258348" width="395.52" id="textblock"><g><svg viewBox="0 0 395.52 71.41942903258348" height="71.41942903258348" width="395.52"><g transform="matrix(1,0,0,1,0,0)"><svg width="395.52" viewBox="1.88 -42.94 242.85 43.699999999999996" height="71.41942903258348" data-palette-color="#336a86"><g class="wordmark-text-0" data-fill-palette-color="primary" id="text-0"><path d="M32.79-10.74L32.79-10.74Q32.79-8.47 32.21-6.74 31.64-5 30.6-3.74 29.57-2.47 28.15-1.61 26.73-0.76 25.06-0.24 23.39 0.27 21.52 0.49 19.65 0.71 17.72 0.71L17.72 0.71Q15.19 0.71 13.04 0.33 10.89-0.05 9-0.87 7.1-1.68 5.36-2.98 3.61-4.27 1.88-6.13L1.88-6.13 6.86-11.18Q7.54-9.5 8.74-8.07 9.94-6.64 11.36-5.62 12.79-4.59 14.33-4 15.87-3.42 17.24-3.42L17.24-3.42Q18.85-3.42 20.26-3.65 21.68-3.88 22.73-4.42 23.78-4.96 24.38-5.85 24.98-6.74 24.98-8.08L24.98-8.08Q24.98-9.11 24.51-9.84 24.05-10.57 23.3-11.1 22.56-11.62 21.61-11.99 20.65-12.35 19.67-12.61 18.68-12.87 17.72-13.07 16.77-13.28 16.04-13.5L16.04-13.5Q14.6-13.92 13.04-14.39 11.47-14.87 9.96-15.48 8.45-16.09 7.09-16.88 5.74-17.68 4.71-18.76 3.69-19.85 3.08-21.28 2.47-22.71 2.47-24.56L2.47-24.56Q2.47-26.78 3.02-28.5 3.56-30.22 4.57-31.49 5.57-32.76 6.93-33.63 8.3-34.5 9.94-35.02 11.57-35.55 13.42-35.78 15.26-36.01 17.19-36.01L17.19-36.01Q19.82-36.01 21.98-35.52 24.15-35.03 25.98-34.13 27.81-33.23 29.33-31.97 30.86-30.71 32.2-29.17L32.2-29.17 27.22-24.12Q26.64-25.88 25.6-27.29 24.56-28.71 23.29-29.72 22.02-30.74 20.63-31.29 19.24-31.84 17.94-31.84L17.94-31.84Q16.26-31.84 14.84-31.6 13.43-31.37 12.41-30.85 11.4-30.32 10.84-29.43 10.28-28.54 10.28-27.22L10.28-27.22Q10.28-26.17 10.69-25.44 11.11-24.71 11.8-24.19 12.5-23.68 13.38-23.35 14.26-23.02 15.2-22.78 16.14-22.53 17.05-22.35 17.97-22.17 18.73-21.95L18.73-21.95Q20.19-21.53 21.8-21.07 23.41-20.61 24.98-19.98 26.54-19.36 27.95-18.55 29.37-17.75 30.44-16.64 31.52-15.53 32.15-14.07 32.79-12.62 32.79-10.74ZM55.88-17.14L51.22 0 43.8 0 36.08-28.2 44.33-28.2 49.17-8.42 53.2-28.2 60.62-28.2 65.55-7.89 70.31-28.2 76.02-28.2 67.48 0 60.06 0 55.88-17.14ZM89.18-35.01L89.18-35.01Q89.18-34.08 88.83-33.25 88.47-32.42 87.86-31.81 87.25-31.2 86.42-30.85 85.59-30.49 84.66-30.49L84.66-30.49Q83.74-30.49 82.92-30.85 82.1-31.2 81.49-31.81 80.88-32.42 80.52-33.25 80.17-34.08 80.17-35.01L80.17-35.01Q80.17-35.94 80.52-36.76 80.88-37.57 81.49-38.18 82.1-38.79 82.92-39.15 83.74-39.5 84.66-39.5L84.66-39.5Q85.59-39.5 86.42-39.15 87.25-38.79 87.86-38.18 88.47-37.57 88.83-36.76 89.18-35.94 89.18-35.01ZM88.81-28.17L88.81 0 80.54 0 80.54-28.17 88.81-28.17ZM122.06-39.79L122.06-39.79 117.4-32.08Q117.33-33.01 117.06-34.22 116.79-35.42 116.17-36.5 115.54-37.57 114.46-38.32 113.37-39.06 111.69-39.06L111.69-39.06Q109.95-39.06 108.9-38.38 107.85-37.7 107.29-36.33 106.73-34.96 106.54-32.93 106.34-30.91 106.34-28.22L106.34-28.22 114.89-28.22 114.89-24.95 106.34-24.95 106.34 0 98.06 0 98.06-24.95 92.94-24.95 92.94-28.22 98.06-28.22Q98.06-32.1 98.89-34.89 99.72-37.67 101.41-39.47 103.09-41.26 105.64-42.1 108.2-42.94 111.61-42.94L111.61-42.94Q113.66-42.94 115.29-42.66 116.91-42.38 118.17-41.93 119.43-41.48 120.38-40.92 121.33-40.36 122.06-39.79ZM130.7-24.93L130.7 0 122.43 0 122.43-24.93 117.3-24.93 117.3-28.2 122.43-28.2 122.43-38.57 130.7-38.57 130.7-28.2 139.25-28.2 139.25-24.93 130.7-24.93ZM146.81-35.16L153.92-35.16Q153.26-33.18 152.77-31.07 152.28-28.96 151.97-26.84 151.65-24.73 151.49-22.68 151.33-20.63 151.33-18.8L151.33-18.8Q151.33-17.46 151.34-15.78 151.35-14.11 151.54-12.38 151.72-10.64 152.14-9 152.55-7.35 153.37-6.05 154.19-4.76 155.47-3.98 156.75-3.2 158.65-3.2L158.65-3.2Q160.34-3.2 161.55-3.77 162.76-4.35 163.6-5.32 164.44-6.3 164.94-7.57 165.44-8.84 165.72-10.23 166-11.62 166.09-13.05 166.17-14.48 166.17-15.77L166.17-15.77 166.17-35.16 175.87-35.16 175.87-17.29Q175.87-13.45 174.65-10.16 173.43-6.86 171.2-4.43 168.98-2 165.83-0.62 162.68 0.76 158.85 0.76L158.85 0.76Q156.21 0.76 153.94 0.01 151.67-0.73 149.78-2.04 147.89-3.34 146.41-5.14 144.93-6.93 143.95-9.06 142.96-11.18 142.44-13.54 141.93-15.89 141.98-18.31L141.98-18.31 141.98-18.8Q142-20.75 142.37-22.84 142.74-24.93 143.36-27.03 143.98-29.13 144.86-31.19 145.74-33.25 146.81-35.16L146.81-35.16ZM193.1-13.13L193.1 0 183.41 0 183.41-35.16 200.69-35.16Q203.13-35.16 205.4-34.58 207.68-34.01 209.42-32.78 211.17-31.54 212.2-29.59 213.24-27.64 213.24-24.85L213.24-24.85Q213.24-22.68 212.33-20.76 211.41-18.85 209.88-17.35 208.36-15.84 206.38-14.86 204.4-13.87 202.28-13.55L202.28-13.55Q203.23-11.94 204.27-10.5 205.31-9.06 206.37-7.8 207.43-6.54 208.48-5.48 209.53-4.42 210.48-3.54L210.48-3.54Q212.73-1.49 214.93 0L214.93 0 202.84 0Q201.38-1.39 200.06-3.34L200.06-3.34Q198.94-5 197.8-7.46 196.66-9.91 196.05-13.13L196.05-13.13 193.1-13.13ZM203.4-24.85L203.4-24.85Q203.4-28.39 201.68-30.05 199.96-31.71 196.52-31.71L196.52-31.71 193.1-31.71 193.1-16.46 196.52-16.46Q198.35-16.46 199.66-17.15 200.96-17.85 201.79-19.01 202.62-20.17 203.01-21.68 203.4-23.19 203.4-24.85ZM244.73-4.47L244.73 0 219.49 0 219.49-35.16 229.18-35.16 229.18-4.47 244.73-4.47Z" fill="white" data-fill-palette-color="primary"></path></g></svg></g></svg></g></svg></g></svg></g></svg></g><defs></defs></svg><rect width="395.52" height="71.41942903258348" fill="none" stroke="none" visibility="hidden"></rect></g></svg></g></svg>